<svg width="32" height="32" xmlns="http://www.w3.org/2000/svg">

 <title/>
 <g>
  <title>background</title>
  <rect fill="none" id="canvas_background" height="402" width="582" y="-1" x="-1"/>
 </g>
 <g>
  <title>Layer 1</title>
  <path fill="#ffffff" id="svg_1" d="m16.47,16.88l9.87,-9.88a1,1 0 0 0 -1.41,-1.41l-9.06,9.06l-8.8,-8.8a1,1 0 0 0 -1.41,0l0,0a1,1 0 0 0 0,1.42l9.61,9.61a0.85,0.85 0 0 0 1.2,0z" class="cls-1"/>
  <path fill="#ffffff" id="svg_2" d="m16.47,26.46l9.87,-9.88a1,1 0 0 0 -1.41,-1.41l-9.06,9.06l-8.8,-8.8a1,1 0 0 0 -1.41,0l0,0a1,1 0 0 0 0,1.41l9.61,9.62a0.85,0.85 0 0 0 1.2,0z" class="cls-1"/>
 </g>
</svg>