<svg height="511pt" viewBox="0 1 511.99997 511" width="511pt" xmlns="http://www.w3.org/2000/svg"><path d="m279.507812 163.679688v162.832031h-235.410156v-162.832031l117.703125-117.179688zm0 0" fill="#ffb954"/><path d="m119.800781 190.503906h84.003907v136.007813h-84.003907zm0 0" fill="#72d8ff"/><path d="m378.105469 412.417969 83.09375 83.09375c9.335937 9.339843 24.476562 9.339843 33.8125 0 9.339843-9.335938 9.339843-24.472657 0-33.8125l-83.09375-83.09375zm0 0" fill="#ff5d5d"/><path d="m430.019531 310.507812c0 66.277344-53.730469 120.003907-120.003906 120.003907-66.277344 0-120.003906-53.726563-120.003906-120.003907 0-66.273437 53.726562-120.003906 120.003906-120.003906 66.273437 0 120.003906 53.730469 120.003906 120.003906zm0 0" fill="#fff"/><path d="m388.015625 310.507812c0 43.082032-34.921875 78.003907-78 78.003907-43.082031 0-78.003906-34.921875-78.003906-78.003907 0-43.078124 34.921875-78 78.003906-78 43.078125 0 78 34.921876 78 78zm0 0" fill="#72d8ff"/><path d="m243.8125 162.105469-82.007812-81.902344-82.011719 81.902344h-69.792969l151.804688-151.605469 151.800781 151.605469zm0 0" fill="#ff5d5d"/><path d="m232.015625 90.621094c2.089844 0 4.195313-.652344 5.996094-2 4.417969-3.316406 5.3125-9.582032 2-14-3.3125-4.421875-9.582031-5.316406-14-2.003906l-.003907.003906c-4.417968 3.3125-5.3125 9.582031-2 14 1.964844 2.617187 4.96875 4 8.007813 4zm0 0"/><path d="m149.003906 246.507812c-2.628906 0-5.210937 1.070313-7.070312 2.929688s-2.929688 4.441406-2.929688 7.070312c0 2.632813 1.070313 5.210938 2.929688 7.070313s4.441406 2.929687 7.070312 2.929687 5.210938-1.070312 7.070313-2.929687 2.929687-4.4375 2.929687-7.070313c0-2.628906-1.070312-5.210937-2.929687-7.070312s-4.441407-2.929688-7.070313-2.929688zm0 0"/><path d="m310.015625 222.507812c-48.527344 0-88.003906 39.476563-88.003906 88.003907 0 48.523437 39.476562 88 88.003906 88 48.523437 0 88-39.476563 88-88 0-48.527344-39.476563-88.003907-88-88.003907zm0 156.003907c-37.496094 0-68.003906-30.503907-68.003906-68 0-37.496094 30.507812-68.003907 68.003906-68.003907s68 30.507813 68 68.003907c0 37.496093-30.503906 68-68 68zm0 0"/><path d="m502.085938 454.628906-79.367188-79.367187c11-19.078125 17.300781-41.191407 17.300781-64.75 0-71.6875-58.320312-130.003907-130.003906-130.003907-6.976563 0-13.824219.558594-20.507813 1.621094v-10.019531h24.097657c4.046875 0 7.691406-2.4375 9.238281-6.175781 1.546875-3.738282.691406-8.042969-2.171875-10.902344l-59.507813-59.4375c-3.910156-3.902344-10.242187-3.898438-14.144531.011719-3.902343 3.90625-3.898437 10.238281.007813 14.140625l42.414062 42.363281h-41.492187l-79.078125-78.980469c-3.90625-3.902344-10.230469-3.902344-14.136719 0l-79.078125 78.980469h-41.492188l127.636719-127.476563 38.851563 38.816407c3.90625 3.902343 10.238281 3.902343 14.144531-.007813 3.902344-3.90625 3.898437-10.238281-.007813-14.140625l-45.917968-45.875c-3.90625-3.898437-10.230469-3.902343-14.136719 0l-151.800781 151.605469c-2.8632815 2.859375-3.71875 7.160156-2.171875 10.898438 1.546875 3.738281 5.191406 6.175781 9.238281 6.175781h24.097656v154.40625c0 5.519531 4.476563 10 10 10h138.527344c12.078125 59.265625 64.605469 104 127.390625 104 23.554687 0 45.667969-6.296875 64.742187-17.296875l79.371094 79.371094c6.609375 6.609374 15.292969 9.914062 23.976563 9.914062 8.683593 0 17.367187-3.304688 23.980469-9.914062 13.21875-13.222657 13.21875-34.734376 0-47.957032zm-447.988282-282.523437h25.695313c2.652343 0 5.191406-1.050781 7.066406-2.921875l74.941406-74.847656 74.941407 74.847656c1.875 1.871094 4.417968 2.921875 7.066406 2.921875h25.695312v14.871093c-21.605468 7.101563-40.738281 19.71875-55.703125 36.1875v-32.660156c0-5.519531-4.476562-10-10-10h-84.003906c-5.519531 0-10 4.480469-10 10v126.003906h-55.699219zm75.703125 144.40625v-116.003907h64.003907v50c0 .519532.050781 1.023438.125 1.519532-8.898438 17.589844-13.917969 37.460937-13.917969 58.484375 0 2.011719.050781 4.011719.144531 6zm70.210938-6c0-60.65625 49.347656-110.003907 110.003906-110.003907s110.003906 49.347657 110.003906 110.003907-49.347656 110.003906-110.003906 110.003906-110.003906-49.347656-110.003906-110.003906zm287.929687 177.929687c-5.421875 5.421875-14.246094 5.425782-19.671875 0l-76.738281-76.738281c7.234375-5.839844 13.832031-12.4375 19.671875-19.671875l76.738281 76.742188c5.425782 5.421874 5.425782 14.246093 0 19.667968zm0 0"/><path d="m310.015625 265.511719c-5.523437 0-10 4.480469-10 10 0 5.523437 4.476563 10 10 10 13.78125 0 24.996094 11.214843 24.996094 24.996093 0 5.523438 4.476562 10.003907 10 10.003907 5.519531 0 10-4.480469 10-10.003907 0-24.808593-20.183594-44.996093-44.996094-44.996093zm0 0"/></svg>