<svg id="Layer_1" enable-background="new 0 0 512 512" height="512" viewBox="0 0 512 512" width="512" xmlns="http://www.w3.org/2000/svg"><g id="XMLID_113_"><path id="XMLID_1762_" d="m39.672 315.018h304v186h-304z" fill="#ffda8f"/><path id="XMLID_1488_" d="m310.218 129.227 16.23 15.061c1.131 1.05 113.115 107.841 113.115 356.73h44.281c0-61.359-6.522-119.802-19.385-173.704-10.358-43.401-24.832-83.995-43.021-120.652-19.094-38.483-38.376-64.684-50.908-79.644z" fill="#c68a65"/><path id="XMLID_1259_" d="m10 315.018h362c-39.072-66.325-104.303-114.559-181-129.59-76.697 15.031-141.928 63.265-181 129.59z" fill="#d1a184"/><path id="XMLID_1663_" d="m132.946 315.018h116.107c-12.531-66.325-33.453-114.559-58.053-129.591-24.6 15.032-45.522 63.266-58.054 129.591z" fill="#e8d0c1"/><path id="XMLID_1793_" d="m171.672 501.018h-88v-93c0-24.301 19.699-44 44-44 24.3 0 44 19.699 44 44z" fill="#ffcd69"/><path id="XMLID_1792_" d="m282.082 457.018h-48.82c-9.715 0-17.59-7.875-17.59-17.59v-40.82c0-9.715 7.875-17.59 17.59-17.59h48.82c9.715 0 17.59 7.875 17.59 17.59v40.82c0 9.715-7.875 17.59-17.59 17.59z" fill="#ffcd69"/><path id="XMLID_1491_" d="m310.735 40.452c-21.981-21.981-56.106-34.051-86.565-27.843l114.408 114.408c6.207-30.459-5.862-64.584-27.843-86.565z" fill="#d5ea79"/><path id="XMLID_1495_" d="m369.67 40.452c21.981-21.981 56.106-34.051 86.565-27.843l-114.408 114.409c-6.207-30.46 5.862-64.585 27.843-86.566z" fill="#e0ef9b"/><path id="XMLID_1489_" d="m421.101 85.495c31.086 0 63.75 15.595 80.899 41.523h-161.798c17.149-25.928 49.813-41.523 80.899-41.523z" fill="#d5ea79"/><path id="XMLID_1392_" d="m259.304 85.495c-31.086 0-63.75 15.595-80.899 41.523h161.798c-17.149-25.928-49.814-41.523-80.899-41.523z" fill="#e0ef9b"/><g fill="#d5ea79"><circle id="XMLID_1580_" cx="321.577" cy="153.518" r="26.5"/><circle id="XMLID_1585_" cx="376.327" cy="155.018" r="26.5"/><circle id="XMLID_1587_" cx="336.718" cy="111.995" r="26.5"/></g><g id="XMLID_732_"><path id="XMLID_1202_" d="m233.262 371.018c-15.213 0-27.59 12.377-27.59 27.59v40.82c0 15.213 12.377 27.59 27.59 27.59h48.82c15.213 0 27.59-12.377 27.59-27.59v-40.82c0-15.213-12.377-27.59-27.59-27.59zm56.41 27.59v40.82c0 4.185-3.405 7.59-7.59 7.59h-48.82c-4.185 0-7.59-3.405-7.59-7.59v-40.82c0-4.185 3.405-7.59 7.59-7.59h48.82c4.185 0 7.59 3.405 7.59 7.59z"/><path id="XMLID_1206_" d="m502 491.018h-8.222c-.673-58.494-7.249-114.303-19.592-166.025-10.534-44.138-25.267-85.445-43.789-122.776-6.104-12.3-12.655-24.214-19.507-35.492 1.249-3.678 1.937-7.612 1.937-11.707 0-6.543-1.739-12.684-4.767-18h93.94c3.682 0 7.065-2.022 8.808-5.266 1.743-3.242 1.564-7.181-.467-10.251-18.484-27.948-53.514-46.007-89.239-46.007-4.863 0-9.772.374-14.669 1.061l56.874-56.874c2.603-2.604 3.565-6.426 2.505-9.951s-3.972-6.184-7.579-6.919c-32.83-6.689-70.369 5.307-95.634 30.571-9.183 9.184-16.84 20.379-22.394 32.552-5.558-12.176-13.228-23.382-22.399-32.553-25.263-25.262-62.799-37.261-95.634-30.57-3.607.735-6.519 3.394-7.579 6.919s-.098 7.348 2.505 9.951l56.843 56.843c-4.878-.676-9.774-1.03-14.637-1.03-35.726 0-70.755 18.059-89.24 46.007-2.031 3.07-2.21 7.009-.467 10.251 1.743 3.243 5.126 5.266 8.808 5.266h110.66c-2.558 5.031-3.988 10.661-3.988 16.5 0 20.126 16.374 36.5 36.5 36.5 8.581 0 16.473-2.984 22.712-7.958 34.134 49.022 83.249 147.382 85.208 308.958h-75.825v-38c0-5.522-4.478-10-10-10s-10 4.478-10 10v38h-152v-83c0-29.775-24.224-54-54-54s-54 24.225-54 54v83h-24v-166h284v38c0 5.522 4.478 10 10 10s10-4.478 10-10v-38h18.328c3.588 0 6.901-1.923 8.682-5.038s1.756-6.946-.065-10.038c-41.286-70.081-109.698-119.042-187.694-134.328-1.271-.248-2.576-.248-3.847 0-77.996 15.286-146.408 64.247-187.692 134.328-1.821 3.092-1.846 6.923-.066 10.038 1.781 3.115 5.094 5.038 8.682 5.038h19.672v166h-19.672c-5.523 0-10 4.478-10 10s4.477 10 10 10h492c5.522 0 10-4.478 10-10s-4.478-10-10-10zm-148.181-186h-96.541c-6.159-30.146-17.333-72.059-35.645-101.1 53.214 18.046 99.735 53.505 132.186 101.1zm-162.819-107.201c18.061 15.69 34.699 54.537 45.854 107.201h-91.708c11.155-52.664 27.793-91.511 45.854-107.201zm-30.634 6.101c-18.312 29.041-29.485 70.954-35.644 101.1h-96.541c32.45-47.595 78.971-83.053 132.185-101.1zm-66.694 287.1v-83c0-18.748 15.252-34 34-34s34 15.252 34 34v83zm226.546-379.024c0-9.098 7.402-16.5 16.5-16.5s16.5 7.402 16.5 16.5-7.402 16.5-16.5 16.5-16.5-7.402-16.5-16.5zm39.609 43.024c0-9.098 7.402-16.5 16.5-16.5s16.5 7.402 16.5 16.5-7.402 16.5-16.5 16.5-16.5-7.402-16.5-16.5zm61.275-59.524c21.356 0 42.939 8.215 58.634 21.523h-106.872c.227-1.644.354-3.318.354-5.023 0-.724-.027-1.442-.069-2.156l1.462-1.462c14.02-8.24 30.564-12.882 46.491-12.882zm-44.361-47.97c15.102-15.102 36.172-24.554 56.68-26.241l-68.091 68.09c-2.682-3.385-5.945-6.291-9.646-8.551 4.613-12.549 11.915-24.157 21.057-33.298zm-73.078 0c8.424 8.424 15.3 18.977 19.939 30.418-4.576 1.769-8.707 4.432-12.181 7.778l-64.437-64.437c20.508 1.687 41.579 11.139 56.679 26.241zm-44.359 47.97c14.097 0 28.566 3.572 41.481 10.136-.365 2.068-.567 4.192-.567 6.364 0 1.705.127 3.38.354 5.023h-99.902c15.694-13.308 37.278-21.523 58.634-21.523zm62.273 74.524c-9.098 0-16.5-7.402-16.5-16.5 0-5.703 2.981-10.981 7.737-13.976 6.41 5.569 14.767 8.952 23.904 8.952.193 0 .383-.012.575-.015.515 1.611.784 3.303.784 5.038 0 9.099-7.402 16.501-16.5 16.501zm127.927 321c-.941-78.332-12.961-150.498-35.765-214.631-12.533-35.248-26.692-63.397-39.627-84.942.733.044 1.471.073 2.215.073 8.141 0 15.667-2.681 21.745-7.204 5.015 8.625 9.843 17.59 14.409 26.792 17.853 35.979 32.067 75.858 42.252 118.529 11.981 50.212 18.383 104.456 19.053 161.383z"/><path id="XMLID_1223_" d="m343.67 398.021c-2.63 0-5.21 1.061-7.07 2.92-1.859 1.87-2.93 4.45-2.93 7.08s1.07 5.2 2.93 7.07c1.86 1.86 4.44 2.93 7.07 2.93 2.64 0 5.21-1.069 7.07-2.93 1.859-1.87 2.93-4.44 2.93-7.07s-1.07-5.21-2.93-7.08c-1.86-1.86-4.43-2.92-7.07-2.92z"/></g></g></svg>